<svg width="271" height="100" viewBox="0 0 271 100" fill="none" xmlns="http://www.w3.org/2000/svg">
<g clip-path="url(#clip0_827_342)">
<path d="M0 52.7516C0 35.6897 9.66097 25.29 25.2523 25.29C40.8436 25.29 50.3051 35.4837 50.3051 51.7393V56.1829H14.7935V57.0892C14.7935 63.7516 19.1225 68.2952 27.0707 68.2952C33.2063 68.2952 37.5353 65.6702 40.7556 61.8329L48.8035 70.614C44.7795 75.5578 37.7347 79.8012 26.5662 79.8012C9.15651 79.8071 0 69.4134 0 52.7516ZM14.7935 46.9956V47.802H35.7169V46.9956C35.7169 40.2332 31.7926 35.9898 25.352 35.9898C18.9113 35.9898 14.7877 40.3333 14.7877 46.9956H14.7935Z" fill="white"/>
<path d="M146.017 100C135.652 100 129.012 96.769 124.889 92.4255L132.837 82.9382C136.257 86.4695 140.486 88.2881 145.613 88.2881C153.66 88.2881 157.385 83.9446 157.385 76.782V66.3823H156.681C154.065 72.6445 149.636 77.1822 141.289 77.1822C129.822 77.1822 121.768 68.7012 121.768 51.239C121.768 33.7769 129.816 25.2959 141.289 25.2959C149.642 25.2959 154.065 29.7394 156.681 35.9957H157.385V26.5083H172.278V75.4695C172.278 90.913 163.421 100 146.017 100V100ZM157.385 57.6012V44.8827C157.385 39.4328 152.957 36.9079 147.724 36.9079C141.084 36.9079 137.26 41.2514 137.26 48.52V53.8698C137.26 61.1384 141.084 65.5819 147.724 65.5819C152.957 65.5819 157.385 63.0571 157.385 57.6071V57.6012Z" fill="white"/>
<path d="M212.934 69.4133H212.43C210.617 76.1758 204.581 79.813 196.633 79.813C186.573 79.813 179.933 74.057 179.933 64.2636C179.933 53.3578 188.081 48.2139 203.273 48.2139H211.626V45.589C211.626 39.4328 209.01 36.2016 202.171 36.2016C195.929 36.2016 192.31 38.9266 189.495 42.7639L181.347 35.4954C184.767 29.6393 192.316 25.3018 203.883 25.3018C218.073 25.3018 226.52 31.8641 226.52 44.9887V67.8066H232.256V78.6064H223.704C217.568 78.6064 213.544 75.2753 212.94 69.4192L212.934 69.4133ZM211.626 62.5509V56.2888H203.678C197.742 56.2888 194.522 58.4075 194.522 62.445V64.4637C194.522 68.1009 197.537 70.0137 202.27 70.0137C207.503 70.0137 211.626 67.3887 211.626 62.545V62.5509Z" fill="white"/>
<path d="M240.21 66.9884V11.612V0H255.104V66.9884H271V78.6004H240.21V66.9884V66.9884Z" fill="white"/>
<path d="M58.4351 52.0984L109.374 36.9609L112.747 48.3846L61.8079 63.5221L58.4351 52.0984Z" fill="white"/>
<path d="M85.623 30.1334V27.7086C85.623 23.7713 88.1395 20.7402 94.4804 20.7402C100.821 20.7402 103.338 23.7713 103.338 27.7086V30.1334C103.338 33.9708 100.821 37.1018 94.4804 37.1018C88.1395 37.1018 85.623 33.9708 85.623 30.1334Z" stroke="white" stroke-width="1.48314"/>
<path d="M67.9143 73.0504V70.6256C67.9143 66.7883 70.4307 63.6572 76.7717 63.6572C83.1126 63.6572 85.629 66.7883 85.629 70.6256V73.0504C85.629 76.9878 83.1126 80.0129 76.7717 80.0129C70.4307 80.0129 67.9143 76.9878 67.9143 73.0504V73.0504Z" stroke="white" stroke-width="1.48314"/>
</g>
<defs>
<clipPath id="clip0_827_342">
<rect width="271" height="100" fill="white"/>
</clipPath>
</defs>
</svg>
