<svg width="23" height="26" viewBox="0 0 23 26" fill="none" xmlns="http://www.w3.org/2000/svg">
<g clip-path="url(#clip0_827_350)">
<path d="M21.5707 7.15896L-0.0012207 13.6733L1.4266 18.5875L22.9985 12.0731L21.5707 7.15896Z" fill="black"/>
<path d="M15.2492 0C13.0177 0 11.6848 1.10789 11.6848 2.96385V3.80898C11.6848 6.55977 14.4132 6.77283 15.2492 6.77283C16.0851 6.77283 18.8135 6.55977 18.8135 3.80898V2.96385C18.8135 1.10789 17.4807 0 15.2492 0ZM17.7593 2.96385V3.80898C17.7593 5.06364 16.9141 5.70045 15.2492 5.70045C13.5843 5.70045 12.739 5.06364 12.739 3.80898V2.96385C12.739 1.70919 13.5843 1.07238 15.2492 1.07238C16.9141 1.07238 17.7593 1.70919 17.7593 2.96385V2.96385Z" fill="black"/>
<path d="M7.75113 19.2271C6.91519 19.2271 4.18677 19.4401 4.18677 22.1909V23.036C4.18677 24.892 5.51963 25.9999 7.75113 25.9999C9.98263 25.9999 11.3155 24.892 11.3155 23.036V22.1909C11.3155 19.4401 8.58707 19.2271 7.75113 19.2271ZM10.2613 22.1909V23.036C10.2613 24.2907 9.41605 24.9275 7.75113 24.9275C6.08621 24.9275 5.24098 24.2907 5.24098 23.036V22.1909C5.24098 20.9362 6.08621 20.2994 7.75113 20.2994C9.41605 20.2994 10.2613 20.9362 10.2613 22.1909Z" fill="black"/>
</g>
<defs>
<clipPath id="clip0_827_350">
<rect width="23" height="26" fill="white"/>
</clipPath>
</defs>
</svg>
